<svg xmlns="http://www.w3.org/2000/svg" width="24" height="24" viewBox="0 0 24 24">
  <defs><mask id="badge"><rect width="24" height="24" fill="white"/><circle cx="19" cy="19" r="5.3" fill="black"/></mask></defs>
  <g fill="#161616" mask="url(#badge)">
    <circle cx="13" cy="5" r="3"/>
    <circle cx="20" cy="6" r="2.3"/>
    <path d="M18 10h4a1 1 0 0 1 1 1v5a3.5 3.5 0 0 1-5 3.16V10Z"/>
    <path d="M10 10h7a1 1 0 0 1 1 1v6a5 5 0 0 1-8 4V10Z"/>
    <path fill-rule="evenodd" d="M2 8h11a1 1 0 0 1 1 1v11a1 1 0 0 1-1 1H2a1 1 0 0 1-1-1V9a1 1 0 0 1 1-1Zm2 3v2h2.5v6h2v-6H11v-2H4Z"/>
  </g>
  <circle cx="19" cy="19" r="4.3" fill="#f63579"/>
</svg>
